<?xml version="1.0" encoding="UTF-8"?>
<svg id="SVGDoc" width="34" height="34" xmlns="http://www.w3.org/2000/svg" version="1.1" xmlns:xlink="http://www.w3.org/1999/xlink" xmlns:avocode="https://avocode.com/" viewBox="0 0 34 34"><defs></defs><desc>Generated with Avocode.</desc><g><g><title>Icon feather-phone</title><path d="M32,24.38015v0v4.5c0.00343,0.84472 -0.34943,1.65174 -0.97188,2.2228c-0.62246,0.57106 -1.45682,0.85323 -2.29812,0.7772c-4.61575,-0.50154 -9.0495,-2.07878 -12.94499,-4.605c-3.62426,-2.303 -6.697,-5.37574 -9.00001,-9c-2.53503,-3.91319 -4.11263,-8.36851 -4.605,-13.005c-0.07579,-0.83869 0.20441,-1.67062 0.77215,-2.29256c0.56774,-0.62195 1.37074,-0.97664 2.21285,-0.97743h4.5c1.5058,-0.01482 2.78925,1.08895 3,2.58c0.18993,1.4401 0.54217,2.85409 1.05,4.215c0.4121,1.09631 0.14852,2.33221 -0.675,3.165l-1.905,1.905c2.13534,3.75532 5.24469,6.86467 9.00001,9l1.90499,-1.905c0.83279,-0.82352 2.06869,-1.0871 3.165,-0.675c1.36091,0.50783 2.7749,0.86007 4.215,1.05c1.50834,0.21279 2.61778,1.52219 2.57999,3.045z" fill-opacity="0" fill="#ffffff" stroke-dashoffset="0" stroke-linejoin="round" stroke-linecap="round" stroke-opacity="1" stroke="#e9361e" stroke-miterlimit="20" stroke-width="3"></path></g></g></svg>